<svg xmlns="http://www.w3.org/2000/svg" viewBox="0 0 32 32" role="img" aria-label="ORTODONCJA profesora Lostera">
  <rect width="32" height="32" rx="7" fill="#2f7aab"/>
  <path d="M16 6c-3.2 0-5.5 1.6-6.8 1.6S7 6.6 6.2 7.2C5.3 7.9 5 9.4 5.4 11.8c.3 1.9.8 3.1 1.3 5.2.5 2 .8 5.2 1.7 6.8.5.9 1.6.9 2.1-.1.6-1.2.9-3.3 1.4-4.6.3-.8.9-1.3 2.1-1.3s1.8.5 2.1 1.3c.5 1.3.8 3.4 1.4 4.6.5 1 1.6 1 2.1.1.9-1.6 1.2-4.8 1.7-6.8.5-2.1 1-3.3 1.3-5.2.4-2.4.1-3.9-.8-4.6-.8-.6-1.7.4-3 .4S19.2 6 16 6z" fill="#ffffff"/>
</svg>
